<svg xmlns="http://www.w3.org/2000/svg" version="1.1" xmlns:xlink="http://www.w3.org/1999/xlink" xmlns:svgjs="http://svgjs.dev/svgjs" width="1440" height="560" preserveAspectRatio="none" viewBox="0 0 1440 560"><g mask="url(&quot;#SvgjsMask1093&quot;)" fill="none"><rect width="1440" height="560" x="0" y="0" fill="url(&quot;#SvgjsLinearGradient1094&quot;)"></rect><path d="M-77.7 3.02 a80.72 80.72 0 1 0 161.44 0 a80.72 80.72 0 1 0 -161.44 0z" fill="rgba(28, 83, 142, 0.4)" class="triangle-float1"></path><path d="M-119 44.33 a163.33 163.33 0 1 0 326.66 0 a163.33 163.33 0 1 0 -326.66 0z" fill="rgba(28, 83, 142, 0.4)" class="triangle-float3"></path><path d="M-124.32 49.64 a173.96 173.96 0 1 0 347.92 0 a173.96 173.96 0 1 0 -347.92 0z" fill="rgba(28, 83, 142, 0.4)" class="triangle-float3"></path><path d="M1369.716,109.919C1394.259,110.769,1418.007,97.943,1429.7,76.348C1440.919,55.629,1436.325,30.424,1423.442,10.697C1411.765,-7.183,1391.071,-15.58,1369.716,-15.5C1348.52,-15.42,1327.656,-7.037,1316.684,11.098C1305.342,29.846,1306.158,53.123,1316.519,72.43C1327.513,92.917,1346.479,109.115,1369.716,109.919" fill="rgba(28, 83, 142, 0.4)" class="triangle-float2"></path><path d="M1429.175,234.148C1473.112,231.47,1502.617,194.405,1524.7,156.326C1546.884,118.073,1566.982,72.672,1545.102,34.244C1523.075,-4.442,1473.588,-14.482,1429.175,-11.443C1390.242,-8.779,1359.156,15.756,1337.817,48.429C1313.625,85.47,1291.572,129.647,1311.1,169.345C1332.34,212.524,1381.144,237.076,1429.175,234.148" fill="rgba(28, 83, 142, 0.4)" class="triangle-float1"></path><path d="M1454.145,288.409C1507.982,285.635,1547.668,242.293,1572.004,194.191C1593.779,151.151,1594.09,101.044,1570.109,59.193C1545.986,17.094,1502.665,-11.351,1454.145,-11.495C1405.387,-11.639,1363.374,17.503,1336.987,58.504C1307.809,103.842,1288.712,159.488,1313.191,207.525C1339.552,259.255,1396.162,291.396,1454.145,288.409" fill="rgba(28, 83, 142, 0.4)" class="triangle-float2"></path><path d="M81.727,617.037C118.479,619.718,160.504,617.72,180.288,586.631C201.031,554.034,189.672,512.006,169.554,479.02C150.376,447.575,118.558,425.345,81.727,425.031C44.367,424.713,8.337,444.267,-8.733,477.5C-24.629,508.446,-13.647,544.673,5.278,573.865C22.341,600.185,50.443,614.755,81.727,617.037" fill="rgba(28, 83, 142, 0.4)" class="triangle-float1"></path><path d="M-96.25 469.57 a117.82 117.82 0 1 0 235.64 0 a117.82 117.82 0 1 0 -235.64 0z" fill="rgba(28, 83, 142, 0.4)" class="triangle-float1"></path><path d="M71.829,600.086C102.962,599.536,134.453,591.826,152.123,566.187C172.41,536.75,183.048,496.849,163.69,466.794C145.259,438.178,105.856,440.665,71.829,441.524C39.952,442.329,5.4,444.736,-12.332,471.238C-31.779,500.303,-32.662,539.838,-13.538,569.116C4.204,596.279,39.39,600.66,71.829,600.086" fill="rgba(28, 83, 142, 0.4)" class="triangle-float1"></path><path d="M1381.856,587.493C1409.783,585.289,1426.839,560.174,1440.983,535.993C1455.329,511.466,1471.087,483.139,1457.487,458.19C1443.532,432.589,1411.01,427.091,1381.856,427.524C1353.636,427.943,1325.441,436.744,1310.015,460.378C1293.098,486.297,1288.776,519.858,1304.005,546.803C1319.446,574.124,1350.57,589.962,1381.856,587.493" fill="rgba(28, 83, 142, 0.4)" class="triangle-float1"></path><path d="M1348.931,526.487C1369.461,527.518,1388.861,515.714,1398.744,497.69C1408.284,480.292,1406.401,458.585,1395.108,442.27C1385.134,427.86,1366.452,425.343,1348.931,425.722C1332.267,426.083,1314.886,430.039,1306.092,444.198C1296.874,459.039,1299.021,477.591,1307.088,493.088C1315.92,510.054,1329.828,525.528,1348.931,526.487" fill="rgba(28, 83, 142, 0.4)" class="triangle-float2"></path><path d="M1238.7 462.62 a103.92 103.92 0 1 0 207.84 0 a103.92 103.92 0 1 0 -207.84 0z" fill="rgba(28, 83, 142, 0.4)" class="triangle-float1"></path></g><defs><mask id="SvgjsMask1093"><rect width="1440" height="560" fill="#ffffff"></rect></mask><linearGradient x1="15.28%" y1="-39.29%" x2="84.72%" y2="139.29%" gradientUnits="userSpaceOnUse" id="SvgjsLinearGradient1094"><stop stop-color="#0e2a47" offset="0"></stop><stop stop-color="rgba(1, 2, 5, 1)" offset="1"></stop></linearGradient><style>
                @keyframes float1 {
                    0%{transform: translate(0, 0)}
                    50%{transform: translate(-10px, 0)}
                    100%{transform: translate(0, 0)}
                }

                .triangle-float1 {
                    animation: float1 5s infinite;
                }

                @keyframes float2 {
                    0%{transform: translate(0, 0)}
                    50%{transform: translate(-5px, -5px)}
                    100%{transform: translate(0, 0)}
                }

                .triangle-float2 {
                    animation: float2 4s infinite;
                }

                @keyframes float3 {
                    0%{transform: translate(0, 0)}
                    50%{transform: translate(0, -10px)}
                    100%{transform: translate(0, 0)}
                }

                .triangle-float3 {
                    animation: float3 6s infinite;
                }
            </style></defs></svg>